<svg xmlns="http://www.w3.org/2000/svg" xml:lang="en" height="135.12997993388342pt" width="289.8652pt" viewBox="-47.6192 -32.32997993388339 289.8652 135.12997993388342"><path d="M 97.2 32.4 a 4.05 4.05 -270 1 1 0.0 8.100000000000001" style="stroke:black;fill:none;stroke-width:2;" /><path d="M 97.2 40.5 a 4.05 4.05 -270 1 1 0.0 8.100000000000001" style="stroke:black;fill:none;stroke-width:2;" /><path d="M 97.2 48.6 a 4.05 4.05 -270 1 1 0.0 8.100000000000001" style="stroke:black;fill:none;stroke-width:2;" /><path d="M 97.2 56.7 a 4.05 4.05 -270 1 1 0.0 8.099999999999994" style="stroke:black;fill:none;stroke-width:2;" /><path d="M 129.6 -0.0 a 4.05 4.05 0 1 1 8.099999999999994 0.0" style="stroke:black;fill:none;stroke-width:2;" /><path d="M 137.7 -0.0 a 4.05 4.05 0 1 1 8.100000000000023 0.0" style="stroke:black;fill:none;stroke-width:2;" /><path d="M 145.8 -0.0 a 4.05 4.05 0 1 1 8.099999999999994 0.0" style="stroke:black;fill:none;stroke-width:2;" /><path d="M 153.9 -0.0 a 4.05 4.05 0 1 1 8.099999999999994 0.0" style="stroke:black;fill:none;stroke-width:2;" /><path d="M 97.2 32.4 a 4.05 4.05 -270 1 1 0.0 8.100000000000001" style="stroke:black;fill:none;stroke-width:2;" /><path d="M 97.2 40.5 a 4.05 4.05 -270 1 1 0.0 8.100000000000001" style="stroke:black;fill:none;stroke-width:2;" /><path d="M 97.2 48.6 a 4.05 4.05 -270 1 1 0.0 8.100000000000001" style="stroke:black;fill:none;stroke-width:2;" /><path d="M 97.2 56.7 a 4.05 4.05 -270 1 1 0.0 8.099999999999994" style="stroke:black;fill:none;stroke-width:2;" /><path d="M 129.6 -0.0 a 4.05 4.05 0 1 1 8.099999999999994 0.0" style="stroke:black;fill:none;stroke-width:2;" /><path d="M 137.7 -0.0 a 4.05 4.05 0 1 1 8.100000000000023 0.0" style="stroke:black;fill:none;stroke-width:2;" /><path d="M 145.8 -0.0 a 4.05 4.05 0 1 1 8.099999999999994 0.0" style="stroke:black;fill:none;stroke-width:2;" /><path d="M 153.9 -0.0 a 4.05 4.05 0 1 1 8.099999999999994 0.0" style="stroke:black;fill:none;stroke-width:2;" /><path d="M -29.16,81.0 L -29.16,48.599999999999994 L -21.06,48.599999999999994" style="stroke:black;fill:none;stroke-width:2;stroke-linecap:round;stroke-linejoin:round;" /><path d="M -14.96 48.599999999999994 L -21.060000000000002 51.029999999999994 L -21.060000000000002 46.169999999999995 Z" style="stroke:black;fill:black;stroke-linecap:butt;stroke-linejoin:miter;" /><path d="M 0.0,-0.0 L 48.599999999999994,-0.0 L 97.19999999999999,-0.0" style="stroke:black;fill:none;stroke-width:2;stroke-linecap:round;stroke-linejoin:round;" /><path d="M 97.19999999999999,-0.0 L 97.19999999999999,32.4 M 97.19999999999997,64.8 L 97.19999999999997,97.19999999999999" style="stroke:black;fill:none;stroke-width:2;stroke-linecap:round;stroke-linejoin:round;" /><path d="M 97.19999999999999,-0.0 L 129.6,-0.0 M 162.0,-0.0 L 194.39999999999998,-0.0" style="stroke:black;fill:none;stroke-width:2;stroke-linecap:round;stroke-linejoin:round;" /><path d="M 194.39999999999998,-0.0 L 194.39999999999998,32.4 L 202.5,32.4 L 202.5,64.8 L 186.29999999999998,64.8 L 186.29999999999998,32.4 L 194.39999999999998,32.4 M 194.39999999999998,64.8 L 194.39999999999995,97.19999999999999" style="stroke:black;fill:none;stroke-width:2;stroke-linecap:round;stroke-linejoin:round;" /><path d="M 194.39999999999995,97.19999999999999 L 145.79999999999995,97.19999999999999 L 97.19999999999996,97.19999999999997" style="stroke:black;fill:none;stroke-width:2;stroke-linecap:round;stroke-linejoin:round;" /><path d="M 97.19999999999996,97.19999999999997 L 48.599999999999966,97.19999999999997 L -2.8776980798284056e-14,97.19999999999996" style="stroke:black;fill:none;stroke-width:2;stroke-linecap:round;stroke-linejoin:round;" /><path d="M -29.16,81.0 L -29.16,48.599999999999994 L -21.06,48.599999999999994" style="stroke:black;fill:none;stroke-width:2;stroke-linecap:round;stroke-linejoin:round;" /><path d="M -14.96 48.599999999999994 L -21.060000000000002 51.029999999999994 L -21.060000000000002 46.169999999999995 Z" style="stroke:black;fill:black;stroke-linecap:butt;stroke-linejoin:miter;" /><path d="M 0.0,-0.0 L 48.599999999999994,-0.0 L 97.19999999999999,-0.0" style="stroke:black;fill:none;stroke-width:2;stroke-linecap:round;stroke-linejoin:round;" /><path d="M 97.19999999999999,-0.0 L 97.19999999999999,32.4 M 97.19999999999997,64.8 L 97.19999999999997,97.19999999999999" style="stroke:black;fill:none;stroke-width:2;stroke-linecap:round;stroke-linejoin:round;" /><path d="M 97.19999999999999,-0.0 L 129.6,-0.0 M 162.0,-0.0 L 194.39999999999998,-0.0" style="stroke:black;fill:none;stroke-width:2;stroke-linecap:round;stroke-linejoin:round;" /><path d="M 194.39999999999998,-0.0 L 194.39999999999998,32.4 L 202.5,32.4 L 202.5,64.8 L 186.29999999999998,64.8 L 186.29999999999998,32.4 L 194.39999999999998,32.4 M 194.39999999999998,64.8 L 194.39999999999995,97.19999999999999" style="stroke:black;fill:none;stroke-width:2;stroke-linecap:round;stroke-linejoin:round;" /><path d="M 194.39999999999995,97.19999999999999 L 145.79999999999995,97.19999999999999 L 97.19999999999996,97.19999999999997" style="stroke:black;fill:none;stroke-width:2;stroke-linecap:round;stroke-linejoin:round;" /><path d="M 97.19999999999996,97.19999999999997 L 48.599999999999966,97.19999999999997 L -2.8776980798284056e-14,97.19999999999996" style="stroke:black;fill:none;stroke-width:2;stroke-linecap:round;stroke-linejoin:round;" /><text x="-29.16" y="82.14" fill="black" font-size="14" font-family="sans-serif" text-anchor="middle" transform="rotate(0 -29.16 82.14)"><tspan x="-29.16" dy="11.200000000000001">Z<tspan baseline-shift="sub" font-size="smaller">in</tspan></tspan></text><text x="104.48997993388338" y="40.89999999999999" fill="black" font-size="14" font-family="sans-serif" text-anchor="start" transform="rotate(0 104.48997993388338 46.49999999999999)"><tspan x="104.48997993388338" dy="11.200000000000001">VAL_L1</tspan></text><text x="145.79999999999998" y="-20.58997993388339" fill="black" font-size="14" font-family="sans-serif" text-anchor="middle" transform="rotate(0 145.79999999999998 -9.389979933883389)"><tspan x="145.79999999999998" dy="11.200000000000001">VAL_L2</tspan></text><text x="205.73999999999998" y="40.89999999999999" fill="black" font-size="14" font-family="sans-serif" text-anchor="start" transform="rotate(0 205.73999999999998 46.49999999999999)"><tspan x="205.73999999999998" dy="11.200000000000001">Z_L</tspan></text><text x="-29.16" y="82.14" fill="black" font-size="14" font-family="sans-serif" text-anchor="middle" transform="rotate(0 -29.16 82.14)"><tspan x="-29.16" dy="11.200000000000001">Z<tspan baseline-shift="sub" font-size="smaller">in</tspan></tspan></text><text x="104.48997993388338" y="40.89999999999999" fill="black" font-size="14" font-family="sans-serif" text-anchor="start" transform="rotate(0 104.48997993388338 46.49999999999999)"><tspan x="104.48997993388338" dy="11.200000000000001">VAL_L1</tspan></text><text x="145.79999999999998" y="-20.58997993388339" fill="black" font-size="14" font-family="sans-serif" text-anchor="middle" transform="rotate(0 145.79999999999998 -9.389979933883389)"><tspan x="145.79999999999998" dy="11.200000000000001">VAL_L2</tspan></text><text x="205.73999999999998" y="40.89999999999999" fill="black" font-size="14" font-family="sans-serif" text-anchor="start" transform="rotate(0 205.73999999999998 46.49999999999999)"><tspan x="205.73999999999998" dy="11.200000000000001">Z_L</tspan></text><circle cx="0.0" cy="-0.0" r="2.4299999999999997" style="stroke:black;fill:black;stroke-width:2;" /><circle cx="-2.8776980798284056e-14" cy="97.19999999999996" r="2.4299999999999997" style="stroke:black;fill:black;stroke-width:2;" /><circle cx="0.0" cy="-0.0" r="2.4299999999999997" style="stroke:black;fill:black;stroke-width:2;" /><circle cx="-2.8776980798284056e-14" cy="97.19999999999996" r="2.4299999999999997" style="stroke:black;fill:black;stroke-width:2;" /></svg>